<?xml version="1.0" encoding="UTF-8"?>
<svg version="1.1" xmlns="http://www.w3.org/2000/svg" width="575" height="434">
<path d="M0 0 C0.75724365 -0.00128906 1.5144873 -0.00257812 2.29467773 -0.00390625 C8.30704697 0.10961987 12.56420355 1.3214457 17.8125 4.375 C17.8125 5.035 17.8125 5.695 17.8125 6.375 C18.369375 6.560625 18.92625 6.74625 19.5 6.9375 C23.93648054 9.69531223 26.23392804 13.91479458 28.125 18.6875 C29.20975307 24.50572103 29.47457118 30.09913032 27.8125 35.8125 C27.8125 43.20537035 34.65509531 49.08762747 39.3125 54.4375 C41.8125 57.375 41.8125 57.375 41.8125 59.375 C43.2975 59.87 43.2975 59.87 44.8125 60.375 C46.19387335 62.04965856 47.49396716 63.79189132 48.75 65.5625 C52.74801073 71.09139459 57.05230639 76.27156973 61.56225586 81.3894043 C70.8125 91.9635537 70.8125 91.9635537 70.8125 95.375 C71.43125 94.88 72.05 94.385 72.6875 93.875 C74.8125 92.375 74.8125 92.375 76.8125 92.375 C77.3075 90.89 77.3075 90.89 77.8125 89.375 C79.98954283 87.6532101 82.15156587 86.063072 84.4375 84.5 C85.34435547 83.86771484 85.34435547 83.86771484 86.26953125 83.22265625 C87.49412605 82.36883429 88.72070543 81.5178519 89.94921875 80.66967773 C91.84544494 79.35210862 93.72514572 78.01357004 95.6015625 76.66796875 C103.01352215 71.375 103.01352215 71.375 106.8125 71.375 C106.8125 70.715 106.8125 70.055 106.8125 69.375 C110.8125 67.375 114.8125 65.375 118.8125 63.375 C119.37324219 63.07722656 119.93398437 62.77945313 120.51171875 62.47265625 C126.12045218 59.54482685 131.93562944 57.30652285 137.86230469 55.10644531 C139.94850469 54.32398973 142.02484047 53.51819284 144.1015625 52.7109375 C161.30954503 46.09644117 178.84464256 41.03251008 197.16064453 38.71484375 C199.00457367 38.47853834 200.84664284 38.22744097 202.68701172 37.96484375 C241.38633632 32.47960828 283.95066738 32.71342579 321.8125 43.375 C322.69905273 43.62121094 323.58560547 43.86742187 324.49902344 44.12109375 C337.30649697 47.72737461 349.65525129 51.97428316 361.8125 57.375 C362.92496094 57.85582031 364.03742188 58.33664063 365.18359375 58.83203125 C382.22346744 66.40299104 398.06891294 76.37012737 413.125 87.3125 C413.77799072 87.7854248 414.43098145 88.25834961 415.10375977 88.74560547 C419.68937392 92.12874784 419.68937392 92.12874784 420.8125 94.375 C421.58335937 93.364375 422.35421875 92.35375 423.1484375 91.3125 C424.16113184 89.99974807 425.1741705 88.6872617 426.1875 87.375 C426.69539063 86.70726563 427.20328125 86.03953125 427.7265625 85.3515625 C428.21640625 84.71992187 428.70625 84.08828125 429.2109375 83.4375 C429.66130371 82.85097656 430.11166992 82.26445313 430.57568359 81.66015625 C431.18790771 81.02400391 431.18790771 81.02400391 431.8125 80.375 C432.4725 80.375 433.1325 80.375 433.8125 80.375 C434.06902344 79.81039062 434.32554687 79.24578125 434.58984375 78.6640625 C435.95307613 76.11181273 437.56695796 74.00722159 439.375 71.75 C441.8321581 68.71433997 441.8321581 68.71433997 443.8125 65.375 C444.4725 65.375 445.1325 65.375 445.8125 65.375 C446.16828125 64.55708984 446.16828125 64.55708984 446.53125 63.72265625 C448.14167574 60.77184567 450.15402106 58.38795783 452.3125 55.8125 C454.62489639 53.04588289 456.81167699 50.37623452 458.8125 47.375 C459.4725 47.375 460.1325 47.375 460.8125 47.375 C461.10125 46.6325 461.39 45.89 461.6875 45.125 C462.8125 42.375 462.8125 42.375 464 40.25 C465.12975799 38.21450715 465.12975799 38.21450715 463.8125 35.375 C463.20996034 27.04809943 462.72331609 19.37892637 467.8125 12.375 C468.51375 11.34375 469.215 10.3125 469.9375 9.25 C475.49066401 3.21611433 481.23191748 0.11518727 489.43798828 -0.33984375 C498.95593497 -0.48076338 505.20376802 1.2977688 512.37890625 7.79296875 C517.668735 13.43018924 520.94600787 21.64637769 520.8125 29.375 C520.11987166 35.52340848 518.12172187 40.1905524 514.8125 45.375 C514.1525 45.375 513.4925 45.375 512.8125 45.375 C512.4825 46.365 512.1525 47.355 511.8125 48.375 C504.86220252 54.89401411 498.56472653 56.60691412 489.203125 56.54296875 C486.8125 56.375 486.8125 56.375 484.8125 55.375 C484.55597656 56.11492187 484.29945313 56.85484375 484.03515625 57.6171875 C482.75675459 60.50073885 481.40140656 62.21385889 479.25 64.5 C475.04222053 69.09236146 471.09434275 73.84931476 467.17822266 78.69140625 C465.58683019 80.65319432 463.98693482 82.6079032 462.38671875 84.5625 C461.19523985 86.02077398 460.00383335 87.47910711 458.8125 88.9375 C458.23604736 89.64076416 457.65959473 90.34402832 457.06567383 91.06860352 C456.25972778 92.05751587 456.25972778 92.05751587 455.4375 93.06640625 C454.95539063 93.65623291 454.47328125 94.24605957 453.9765625 94.85375977 C452.72879764 96.38541949 452.72879764 96.38541949 451.8125 98.375 C451.1525 98.375 450.4925 98.375 449.8125 98.375 C449.4825 99.365 449.1525 100.355 448.8125 101.375 C448.1525 101.375 447.4925 101.375 446.8125 101.375 C446.44125 102.1484375 446.44125 102.1484375 446.0625 102.9375 C444.41668384 106.14684151 442.6148904 109.25085664 440.8125 112.375 C442.74164795 115.44734674 444.49171605 118.05421605 447.0625 120.625 C460.88302272 134.44552272 469.94230148 152.16334298 476.6875 170.3125 C476.97367188 171.08078125 477.25984375 171.8490625 477.5546875 172.640625 C479.41218311 177.8112498 480.7428695 182.98779242 481.8125 188.375 C482.8025 188.045 483.7925 187.715 484.8125 187.375 C516.20812831 185.71924678 516.20812831 185.71924678 526.1875 194.25 C531.09223864 199.23290181 533.18513536 203.21201347 533.21655273 210.27319336 C533.22684761 211.28395683 533.22684761 211.28395683 533.23735046 212.31513977 C533.25557952 214.53192506 533.25178679 216.74799994 533.24609375 218.96484375 C533.25065756 220.51274342 533.25596374 222.06064106 533.26197815 223.60853577 C533.27090165 226.84905236 533.26849508 230.08932241 533.25854492 233.32983398 C533.24705799 237.47376834 533.26726549 241.61685019 533.29646206 245.76067257 C533.31484665 248.9563992 533.31452713 252.15192241 533.30882454 255.34768867 C533.30867159 256.8750484 533.31469423 258.40242215 533.32711601 259.92973137 C533.34206755 262.06949534 533.3313211 264.20769561 533.31420898 266.34741211 C533.31395973 268.17011879 533.31395973 268.17011879 533.31370544 270.02964783 C532.71327009 274.03732118 531.25208176 276.18239586 528.8125 279.375 C528.27625 280.15875 527.74 280.9425 527.1875 281.75 C526.506875 282.554375 526.506875 282.554375 525.8125 283.375 C525.1525 283.375 524.4925 283.375 523.8125 283.375 C523.4825 284.365 523.1525 285.355 522.8125 286.375 C513.78681486 291.36793221 503.22025558 290.51673805 493.1875 290.4375 C492.08792969 290.43298828 490.98835937 290.42847656 489.85546875 290.42382812 C487.17441997 290.41217139 484.49349068 290.39581017 481.8125 290.375 C481.62880859 291.64730469 481.62880859 291.64730469 481.44140625 292.9453125 C479.18094132 305.27256843 473.72036485 316.44212124 467.8125 327.375 C467.23371094 328.44878906 466.65492188 329.52257812 466.05859375 330.62890625 C461.95390896 337.93353092 457.32443559 345.04357093 451.8125 351.375 C451.1525 351.375 450.4925 351.375 449.8125 351.375 C449.44125 352.2103125 449.44125 352.2103125 449.0625 353.0625 C446.46014385 357.87685889 443.08244771 361.04235789 438.8125 364.375 C438.03648437 365.15359375 437.26046875 365.9321875 436.4609375 366.734375 C428.74873717 374.42382548 419.98209803 380.53326015 410.73022461 386.19897461 C409.32536329 387.06049173 407.92886007 387.9356785 406.53735352 388.81860352 C400.53402801 392.55609856 394.47493621 395.41491054 387.875 397.9375 C386.87428467 398.32172119 385.87356934 398.70594238 384.8425293 399.10180664 C372.57545477 403.71059803 360.45865539 407.23745353 347.38327026 408.48773193 C346.5174026 408.57170471 345.65153494 408.65567749 344.75942886 408.74219489 C335.956097 409.53908832 327.20078924 409.6575639 318.36767578 409.63378906 C316.6270432 409.6365101 314.88641178 409.64007717 313.14578247 409.64440918 C308.48445172 409.6534048 303.82321107 409.65004248 299.16187906 409.64365101 C294.23949886 409.63852194 289.31712544 409.64330151 284.39474487 409.64642334 C276.13245282 409.65004382 267.87019673 409.64531533 259.60791016 409.63574219 C250.11486299 409.62486862 240.62190185 409.62838307 231.12885678 409.639395 C222.91755451 409.64853161 214.70627783 409.64972207 206.49497211 409.64451766 C201.61747449 409.64143177 196.74001701 409.64089358 191.86252213 409.64759064 C152.91169141 409.69355447 117.95069253 408.1491824 83.8125 387.375 C81.48639433 386.02855277 79.15025793 384.70119978 76.8125 383.375 C76.8125 382.715 76.8125 382.055 76.8125 381.375 C75.7915625 381.0346875 75.7915625 381.0346875 74.75 380.6875 C71.1136291 379.06273854 67.78420737 377.04696743 64.8125 374.375 C64.8125 373.715 64.8125 373.055 64.8125 372.375 C64.2246875 372.10300781 63.636875 371.83101563 63.03125 371.55078125 C39.55429233 359.10964699 21.68703443 325.67797488 13.8125 301.375 C13.8125 300.055 13.8125 298.735 13.8125 297.375 C13.1525 297.045 12.4925 296.715 11.8125 296.375 C11.40520772 294.05343403 11.06811323 291.7181213 10.8125 289.375 C10.24281494 289.53726074 9.67312988 289.69952148 9.08618164 289.86669922 C6.78826188 290.38041864 4.78443341 290.50426253 2.43359375 290.5078125 C1.59989258 290.51014893 0.76619141 290.51248535 -0.09277344 290.51489258 C-4.4582872 290.49042581 -8.82255533 290.45098204 -13.1875 290.375 C-14.33605469 290.35824219 -15.48460938 290.34148437 -16.66796875 290.32421875 C-22.88095088 290.017513 -27.5659423 288.68374485 -32.1875 284.375 C-40.28674483 274.13599835 -40.34905879 264.52586945 -40.3203125 251.84375 C-40.32126923 250.88658081 -40.32222595 249.92941162 -40.32321167 248.9432373 C-40.32388663 246.93660414 -40.32208058 244.92996871 -40.31787109 242.92333984 C-40.3125131 239.88243626 -40.31783958 236.84168034 -40.32421875 233.80078125 C-40.32355785 231.83593718 -40.32227643 229.8710932 -40.3203125 227.90625 C-40.32233673 227.01321167 -40.32436096 226.12017334 -40.32644653 225.20007324 C-40.28147176 212.86405307 -39.85168191 202.85144897 -31.1875 193.375 C-20.69034391 184.27127171 -2.04981479 187.06588595 10.8125 187.375 C10.99312988 186.83721924 11.17375977 186.29943848 11.35986328 185.74536133 C14.99290796 174.98966716 18.7734806 164.56140482 23.8125 154.375 C24.27140625 153.385 24.7303125 152.395 25.203125 151.375 C28.97107272 143.42504436 33.68511091 136.48104759 38.8125 129.375 C39.31136719 128.64925781 39.81023437 127.92351562 40.32421875 127.17578125 C42.17501467 124.48424523 44.03198983 122.16086358 46.375 119.875 C49.26375106 116.9121784 50.88189632 114.02169583 52.8125 110.375 C52.1525 110.375 51.4925 110.375 50.8125 110.375 C46.8125 106.02205882 46.8125 106.02205882 46.8125 102.375 C46.19375 102.148125 45.575 101.92125 44.9375 101.6875 C42.1905195 99.99083557 41.94614727 98.32248289 40.8125 95.375 C39.3275 94.88 39.3275 94.88 37.8125 94.375 C36.01681571 92.28494123 34.34261736 90.19648942 32.6875 88 C31.69874742 86.71550592 30.70915365 85.43165896 29.71875 84.1484375 C28.98205078 83.1888916 28.98205078 83.1888916 28.23046875 82.20996094 C22.63161672 74.96461454 16.72099031 68.05501102 10.46484375 61.37109375 C8.8125 59.375 8.8125 59.375 8.8125 57.375 C8.1525 57.375 7.4925 57.375 6.8125 57.375 C6.8125 56.715 6.8125 56.055 6.8125 55.375 C5.8225 55.87 5.8225 55.87 4.8125 56.375 C-4.54162509 57.03142983 -11.88773457 54.56605288 -19.1015625 48.50390625 C-24.81554286 42.67222217 -27.5322265 36.59700648 -27.9375 28.4375 C-27.52692407 20.11649451 -24.91910052 13.05504128 -18.92578125 7.14453125 C-16.74007059 5.39234998 -14.58070929 3.82833073 -12.1875 2.375 C-11.60613281 1.9934375 -11.02476563 1.611875 -10.42578125 1.21875 C-7.01208751 -0.06808743 -3.60074863 -0.00626285 0 0 Z M201.08251953 75.80126953 C198.93903619 76.17734732 196.79419627 76.54579095 194.64794922 76.90576172 C173.14769682 80.54240275 153.04555215 87.04082273 133.8125 97.375 C132.58091218 97.9848282 131.34641483 98.58880854 130.109375 99.1875 C123.9491189 102.1716739 118.27850905 105.24512649 112.8125 109.375 C111.3275 109.87 111.3275 109.87 109.8125 110.375 C108.13311664 112.02885219 106.46830138 113.69753842 104.8125 115.375 C102.83956594 116.93078444 100.83855497 118.45155407 98.8125 119.9375 C91.20151483 125.39713162 91.20151483 125.39713162 84.625 132 C81.87046734 135.24555805 78.95466997 138.18703264 75.875 141.125 C70.58664391 146.34915754 66.76138526 152.1133186 62.8125 158.375 C61.79281244 159.79249159 60.77205982 161.20921793 59.75 162.625 C37.83158058 195.35250297 39.40108228 245.12535195 46.625 282.1875 C50.26734712 299.554757 58.96020818 313.52540854 69.8125 327.375 C70.25207031 327.97054688 70.69164063 328.56609375 71.14453125 329.1796875 C74.90909482 334.10155506 79.9435116 337.62860238 84.8125 341.375 C85.82957031 342.18453125 86.84664062 342.9940625 87.89453125 343.828125 C99.35513177 352.9112326 111.14853454 360.07231754 124.8125 365.375 C125.62460938 365.69339844 126.43671875 366.01179688 127.2734375 366.33984375 C143.24635222 372.13507093 161.04074479 371.5257176 177.80737305 371.53613281 C179.5716919 371.54077359 181.33600978 371.54579988 183.10032654 371.55117798 C187.85268745 371.56417979 192.60503432 371.57072236 197.35741019 371.57518864 C200.33763356 371.57813828 203.31785324 371.58224637 206.29807472 371.58669281 C215.65529379 371.60033336 225.01250425 371.61001771 234.36973256 371.6138947 C245.11130375 371.61837204 255.85274748 371.63591953 266.59427994 371.6648953 C274.93959101 371.6866136 283.28486647 371.69660431 291.63020545 371.69793582 C296.59548202 371.69897628 301.56063823 371.70472068 306.52588463 371.72275543 C311.20215239 371.73941382 315.87821154 371.74130693 320.55449867 371.73261642 C322.25423371 371.73185554 323.95398082 371.73606046 325.65368652 371.74607468 C340.7100984 371.82946246 356.39449296 370.90783586 370.5 365.1875 C371.64819214 364.74555298 371.64819214 364.74555298 372.81958008 364.29467773 C380.73195846 361.16937393 388.30489245 357.36179849 395.8125 353.375 C395.8125 352.715 395.8125 352.055 395.8125 351.375 C396.52792969 351.1275 397.24335938 350.88 397.98046875 350.625 C401.12659706 349.23636405 403.45060963 347.53036054 406.125 345.375 C407.00800781 344.67375 407.89101563 343.9725 408.80078125 343.25 C409.46464844 342.63125 410.12851562 342.0125 410.8125 341.375 C410.8125 340.715 410.8125 340.055 410.8125 339.375 C411.369375 339.148125 411.92625 338.92125 412.5 338.6875 C426.30820629 330.85040994 438.29147479 310.13369233 442.8125 295.375 C445.71922893 284.30314791 448.19205039 272.91359951 448.671875 261.44921875 C448.79505186 258.75643575 449.03953268 256.12138461 449.31640625 253.44140625 C451.23769508 232.75181044 450.27963895 212.17588615 445.4375 192 C445.24067627 191.17870605 445.04385254 190.35741211 444.84106445 189.51123047 C439.18012601 167.31279487 424.24825512 146.35429828 408.125 130.5 C407.00641602 129.38238281 407.00641602 129.38238281 405.86523438 128.2421875 C400.26259996 121.91464899 400.26259996 121.91464899 392.8125 119.375 C392.8125 118.715 392.8125 118.055 392.8125 117.375 C390.88449826 115.86402685 388.96890968 114.48443207 386.9375 113.125 C386.34106689 112.72095947 385.74463379 112.31691895 385.13012695 111.90063477 C375.76540232 105.60351327 366.06576129 100.36399236 355.93334961 95.42553711 C354.43879959 94.6852299 352.95333489 93.92643954 351.47485352 93.15454102 C345.38794482 90.00253149 339.25989799 87.57209795 332.75 85.4375 C331.2016748 84.9276355 331.2016748 84.9276355 329.62207031 84.4074707 C287.36244008 70.81946252 244.73905912 68.13825673 201.08251953 75.80126953 Z " fill="#F7F7F7" transform="translate(42.1875,8.625)"/>
<path d="M0 0 C2.94631574 2.28354533 5.43517077 4.68817744 7.91015625 7.48046875 C7.91015625 8.14046875 7.91015625 8.80046875 7.91015625 9.48046875 C8.57015625 9.48046875 9.23015625 9.48046875 9.91015625 9.48046875 C11.41796875 11.34375 11.41796875 11.34375 13.03515625 13.79296875 C13.57398438 14.59347656 14.1128125 15.39398438 14.66796875 16.21875 C15.91015625 18.48046875 15.91015625 18.48046875 15.91015625 21.48046875 C16.57015625 21.48046875 17.23015625 21.48046875 17.91015625 21.48046875 C25.84774344 39.69259773 28.18438663 58.60788216 20.91015625 77.48046875 C17.72150376 84.55229783 14.14525396 91.70004836 8.91015625 97.48046875 C8.25015625 97.48046875 7.59015625 97.48046875 6.91015625 97.48046875 C6.68328125 98.05796875 6.45640625 98.63546875 6.22265625 99.23046875 C4.56167403 102.07786684 2.59491064 103.60114068 -0.08984375 105.48046875 C-0.74984375 105.48046875 -1.40984375 105.48046875 -2.08984375 105.48046875 C-2.08984375 106.14046875 -2.08984375 106.80046875 -2.08984375 107.48046875 C-15.62772645 117.38385681 -33.488931 122.04779737 -50.1184082 119.74316406 C-68.36507731 116.7283154 -83.74195416 108.27185587 -95.08984375 93.48046875 C-97.21822328 90.21562427 -99.16630785 86.86876618 -101.08984375 83.48046875 C-101.86714844 82.24296875 -101.86714844 82.24296875 -102.66015625 80.98046875 C-104.05332069 78.5443342 -104.92530744 76.35325981 -105.71484375 73.66796875 C-106.07449219 72.48267578 -106.07449219 72.48267578 -106.44140625 71.2734375 C-111.03750832 51.47697375 -107.41387276 35.02193871 -98.08984375 17.48046875 C-97.75984375 16.82046875 -97.42984375 16.16046875 -97.08984375 15.48046875 C-96.42984375 15.48046875 -95.76984375 15.48046875 -95.08984375 15.48046875 C-94.84234375 14.75730469 -94.59484375 14.03414062 -94.33984375 13.2890625 C-90.39897833 4.4344305 -82.43622367 -1.20498139 -74.08984375 -5.51953125 C-72.69958984 -6.30650391 -72.69958984 -6.30650391 -71.28125 -7.109375 C-47.30784778 -20.1307847 -21.57632959 -15.04293633 0 0 Z M-67.08984375 30.48046875 C-72.73199052 39.5752725 -75.17366349 47.85898134 -73.46484375 58.48046875 C-71.16662082 67.8673663 -68.27956986 74.82905768 -59.83203125 80.04296875 C-51.30876083 84.51100795 -43.19513329 87.23444746 -33.60546875 84.8671875 C-29.9262514 83.69488786 -26.52131943 82.25006383 -23.08984375 80.48046875 C-23.08984375 79.82046875 -23.08984375 79.16046875 -23.08984375 78.48046875 C-22.53296875 78.25359375 -21.97609375 78.02671875 -21.40234375 77.79296875 C-15.60982936 74.50532545 -12.30017099 69.53813757 -9.90234375 63.48046875 C-7.46507516 54.02056187 -8.36400966 43.79564037 -13.33203125 35.375 C-14.75689231 33.19337452 -14.75689231 33.19337452 -17.08984375 30.48046875 C-17.74984375 30.48046875 -18.40984375 30.48046875 -19.08984375 30.48046875 C-19.08984375 29.82046875 -19.08984375 29.16046875 -19.08984375 28.48046875 C-21.31974405 26.44556784 -21.31974405 26.44556784 -24.08984375 24.48046875 C-24.79109375 23.94421875 -25.49234375 23.40796875 -26.21484375 22.85546875 C-39.63446318 16.43738989 -57.11738659 19.05314384 -67.08984375 30.48046875 Z " fill="#F4F5F5" transform="translate(434.08984375,189.51953125)"/>
<path d="M0 0 C14.15979989 10.43737827 23.60949815 25.5806065 26.5234375 42.86328125 C29.1661208 62.96655063 24.85843253 80.92578815 13.0234375 97.36328125 C12.4459375 97.98203125 11.8684375 98.60078125 11.2734375 99.23828125 C10.6134375 99.23828125 9.9534375 99.23828125 9.2734375 99.23828125 C9.0053125 99.87765625 8.7371875 100.51703125 8.4609375 101.17578125 C7.2734375 103.23828125 7.2734375 103.23828125 4.2734375 104.23828125 C4.2734375 104.89828125 4.2734375 105.55828125 4.2734375 106.23828125 C-10.09616215 119.08483577 -27.92504698 122.1275027 -46.41259766 121.38623047 C-57.93432654 120.64955947 -69.85895202 116.89856448 -78.7265625 109.23828125 C-78.7265625 108.57828125 -78.7265625 107.91828125 -78.7265625 107.23828125 C-79.8403125 106.86703125 -79.8403125 106.86703125 -80.9765625 106.48828125 C-83.95679337 105.13363086 -85.62575502 103.72812715 -87.7265625 101.23828125 C-87.7265625 100.57828125 -87.7265625 99.91828125 -87.7265625 99.23828125 C-89.2115625 98.74328125 -89.2115625 98.74328125 -90.7265625 98.23828125 C-92.296875 96.34765625 -92.296875 96.34765625 -93.8515625 93.98828125 C-94.36976563 93.22 -94.88796875 92.45171875 -95.421875 91.66015625 C-96.77300653 89.15206779 -97.31873485 87.04333972 -97.7265625 84.23828125 C-98.3865625 84.23828125 -99.0465625 84.23828125 -99.7265625 84.23828125 C-106.35763099 66.8711971 -108.46128008 47.59392385 -101.07421875 30.11328125 C-98.62434485 24.68058301 -96.07906578 19.17391108 -92.7265625 14.23828125 C-92.0665625 14.23828125 -91.4065625 14.23828125 -90.7265625 14.23828125 C-90.4790625 13.68140625 -90.2315625 13.12453125 -89.9765625 12.55078125 C-87.6740548 8.29114201 -84.83508301 4.84034424 -80.7265625 2.23828125 C-80.0665625 2.23828125 -79.4065625 2.23828125 -78.7265625 2.23828125 C-78.7265625 1.57828125 -78.7265625 0.91828125 -78.7265625 0.23828125 C-76.34765625 -1.3828125 -76.34765625 -1.3828125 -73.1640625 -3.19921875 C-72.13152344 -3.79605469 -71.09898437 -4.39289063 -70.03515625 -5.0078125 C-46.55810565 -17.45314393 -21.72708284 -14.03855926 0 0 Z M-57.7265625 26.23828125 C-57.7265625 26.89828125 -57.7265625 27.55828125 -57.7265625 28.23828125 C-58.3246875 28.50640625 -58.9228125 28.77453125 -59.5390625 29.05078125 C-61.72504104 30.23745531 -63.13988844 31.33427238 -64.7265625 33.23828125 C-64.7265625 33.89828125 -64.7265625 34.55828125 -64.7265625 35.23828125 C-65.3865625 35.23828125 -66.0465625 35.23828125 -66.7265625 35.23828125 C-72.23474616 42.81203378 -72.45979911 51.1877338 -71.7265625 60.23828125 C-70.68106405 64.89918081 -68.89670579 69.00178413 -66.7265625 73.23828125 C-66.0665625 73.23828125 -65.4065625 73.23828125 -64.7265625 73.23828125 C-64.0665625 74.55828125 -63.4065625 75.87828125 -62.7265625 77.23828125 C-62.0665625 77.23828125 -61.4065625 77.23828125 -60.7265625 77.23828125 C-60.7265625 77.89828125 -60.7265625 78.55828125 -60.7265625 79.23828125 C-53.64208241 85.27320873 -46.29454401 87.74198212 -37.08203125 87.48828125 C-28.3632165 86.56290124 -19.58489552 82.93573889 -13.7265625 76.23828125 C-7.84742599 66.89308665 -5.70532957 58.11828631 -7.2265625 47.17578125 C-9.26062952 38.65468969 -14.58997645 31.20286285 -21.7265625 26.23828125 C-22.5103125 25.68140625 -23.2940625 25.12453125 -24.1015625 24.55078125 C-35.0271176 19.0880037 -47.16752931 20.56403444 -57.7265625 26.23828125 Z " fill="#F6F7F6" transform="translate(224.7265625,187.76171875)"/>
<path d="M0 0 C-2.91824125 0.84820567 -5.41707695 1.08930351 -8.44921875 0.9921875 C-9.29806641 0.97542969 -10.14691406 0.95867187 -11.02148438 0.94140625 C-12.77952303 0.89761628 -14.53738098 0.84571571 -16.29492188 0.78515625 C-21.73691434 0.69493482 -26.02421566 1.36305888 -31.09472656 3.37866211 C-33.64269308 4.20959173 -35.50204722 3.88637034 -38 3 C-29.79948383 -5.20051617 -10.06783619 -2.44598189 0 0 Z " fill="#797C7B" transform="translate(201,177)"/>
<path d="M0 0 C0.66 0.33 1.32 0.66 2 1 C0.02 1.99 0.02 1.99 -2 3 C-2 3.66 -2 4.32 -2 5 C-2.804375 5.2475 -3.60875 5.495 -4.4375 5.75 C-5.7059375 6.36875 -5.7059375 6.36875 -7 7 C-7.2165625 7.8971875 -7.2165625 7.8971875 -7.4375 8.8125 C-8.37105326 12.44298491 -11.03341226 13.82046615 -14 16 C-14.66 16 -15.32 16 -16 16 C-16.33 17.32 -16.66 18.64 -17 20 C-17.66 20 -18.32 20 -19 20 C-15.95157065 11.01515561 -8.28644431 4.21591026 0 0 Z " fill="#B0B3B2" transform="translate(358,185)"/>
<path d="M0 0 C0 0.66 0 1.32 0 2 C-1.50776732 3.24554692 -3.01807769 4.4883949 -4.55078125 5.703125 C-6.15011828 6.97414547 -6.15011828 6.97414547 -7.0625 9.125 C-8.41911467 11.83822933 -10.3494209 12.64238632 -13 14 C-13.99 14.33 -14.98 14.66 -16 15 C-13.78612631 10.0187842 -10.63117263 5.933076 -6 3 C-5.34 3 -4.68 3 -4 3 C-4 2.34 -4 1.68 -4 1 C-2 0 -2 0 0 0 Z " fill="#B8BAB9" transform="translate(150,187)"/>
<path d="M0 0 C0.33 0 0.66 0 1 0 C2.125 5.625 2.125 5.625 1 9 C0.85507877 10.40664926 0.75371069 11.8181133 0.68359375 13.23046875 C0.64169922 14.03291016 0.59980469 14.83535156 0.55664062 15.66210938 C0.51732422 16.49548828 0.47800781 17.32886719 0.4375 18.1875 C0.39431641 19.03248047 0.35113281 19.87746094 0.30664062 20.74804688 C0.20068482 22.83184433 0.0998498 24.91590103 0 27 C-0.33 27 -0.66 27 -1 27 C-2.37801675 17.52613481 -2.18687619 9.35280086 0 0 Z " fill="#919392" transform="translate(121,227)"/>
<path d="M0 0 C0 3.81433253 -0.5661396 6.44651988 -2 10 C-4.24340786 11.7822917 -6.37000291 12.78240876 -9 14 C-7.65070536 10.16336928 -5.92248975 7.34827431 -3.375 4.1875 C-2.42753906 3.00220703 -2.42753906 3.00220703 -1.4609375 1.79296875 C-0.97882813 1.20128906 -0.49671875 0.60960937 0 0 Z " fill="#A8ABAA" transform="translate(85,133)"/>
<path d="M0 0 C0 3.57996647 -0.92545363 4.23393817 -3 7 C-3 7.99 -3 8.98 -3 10 C-4.96875 11.82421875 -4.96875 11.82421875 -7.5 13.6875 C-8.75296875 14.62142578 -8.75296875 14.62142578 -10.03125 15.57421875 C-11.00578125 16.27998047 -11.00578125 16.27998047 -12 17 C-12.33 16.34 -12.66 15.68 -13 15 C-12.34 15 -11.68 15 -11 15 C-10.76539063 14.45859375 -10.53078125 13.9171875 -10.2890625 13.359375 C-8.6416356 10.34408456 -6.57346656 7.88815988 -4.375 5.25 C-3.55773437 4.26515625 -2.74046875 3.2803125 -1.8984375 2.265625 C-1.27195312 1.51796875 -0.64546875 0.7703125 0 0 Z " fill="#A2A4A3" transform="translate(499,59)"/>
<path d="M0 0 C-4.222635 2.26212589 -7.83555696 3.14745449 -12.625 3.1875 C-13.78902344 3.20876953 -13.78902344 3.20876953 -14.9765625 3.23046875 C-17 3 -17 3 -19 1 C-12.65333314 0.41639845 -6.37625222 -0.14491482 0 0 Z " fill="#949695" transform="translate(546,62)"/>
<path d="M0 0 C0.99 0.33 1.98 0.66 3 1 C-2.96583144 9.6309795 -2.96583144 9.6309795 -8 12 C-7.67 11.01 -7.34 10.02 -7 9 C-6.34 9 -5.68 9 -5 9 C-4.731875 8.2575 -4.46375 7.515 -4.1875 6.75 C-3.05770579 4.13363446 -1.79106798 2.19812889 0 0 Z " fill="#A3A6A5" transform="translate(508,47)"/>
<path d="M0 0 C0.66 0.33 1.32 0.66 2 1 C1.113125 1.5775 0.22625 2.155 -0.6875 2.75 C-3.59042244 4.68068476 -6.30768649 6.78280064 -9 9 C-9 8.34 -9 7.68 -9 7 C-9.66 6.67 -10.32 6.34 -11 6 C-9.73168307 5.18357746 -8.46024069 4.37200895 -7.1875 3.5625 C-6.47980469 3.11003906 -5.77210938 2.65757812 -5.04296875 2.19140625 C-3 1 -3 1 0 0 Z " fill="#A5A7A6" transform="translate(161,180)"/>
<path d="M0 0 C2.52394612 3.12488567 4.39701907 6.31314387 6 10 C5.67 10.66 5.34 11.32 5 12 C4.34 10.68 3.68 9.36 3 8 C1.35 8.66 -0.3 9.32 -2 10 C-1.67 9.0925 -1.34 8.185 -1 7.25 C0.19605723 3.92954193 0.19605723 3.92954193 0 0 Z " fill="#A4A7A6" transform="translate(506,153)"/>
<path d="M0 0 C0.66 0 1.32 0 2 0 C0.59645587 3.50886032 -0.64365823 4.4267148 -4 6 C-4.99 7.485 -4.99 7.485 -6 9 C-7.32 8.34 -8.64 7.68 -10 7 C-8.90241493 6.15801693 -7.79664683 5.32669329 -6.6875 4.5 C-6.07261719 4.0359375 -5.45773438 3.571875 -4.82421875 3.09375 C-3 2 -3 2 0 2 C0 1.34 0 0.68 0 0 Z " fill="#919493" transform="translate(149,78)"/>
<path d="M0 0 C2.475 0.495 2.475 0.495 5 1 C5.0825 1.61875 5.165 2.2375 5.25 2.875 C5.81258459 5.18437567 5.81258459 5.18437567 8.0625 6.25 C8.701875 6.4975 9.34125 6.745 10 7 C6.34648137 7 4.93973224 6.11057699 2 4 C0.6875 1.8125 0.6875 1.8125 0 0 Z " fill="#AFB2B1" transform="translate(8,289)"/>
<path d="M0 0 C0.66 0.33 1.32 0.66 2 1 C0 3.66666667 -2 6.33333333 -4 9 C-5.32 8.34 -6.64 7.68 -8 7 C-5.36 4.69 -2.72 2.38 0 0 Z " fill="#A9ACAB" transform="translate(450,351)"/>
<path d="M0 0 C0.33 0.66 0.66 1.32 1 2 C1.66 2.33 2.32 2.66 3 3 C1.71937515 4.7074998 0.38232443 6.37373596 -1 8 C-1.66 8 -2.32 8 -3 8 C-2.67 6.02 -2.34 4.04 -2 2 C-1.34 2 -0.68 2 0 2 C0 1.34 0 0.68 0 0 Z " fill="#C3C6C5" transform="translate(481,367)"/>
<path d="M0 0 C0.99 0.66 1.98 1.32 3 2 C1.02 2.99 1.02 2.99 -1 4 C-1 4.66 -1 5.32 -1 6 C-2.98 6.99 -2.98 6.99 -5 8 C-4.67 6.02 -4.34 4.04 -4 2 C-2.02 2.495 -2.02 2.495 0 3 C0 2.01 0 1.02 0 0 Z " fill="#AEB1B0" transform="translate(230,288)"/>
<path d="M0 0 C0.66 0.33 1.32 0.66 2 1 C0.02 1.99 0.02 1.99 -2 3 C-2 3.66 -2 4.32 -2 5 C-3.96466413 6.06775224 -5.96855359 7.06553465 -8 8 C-8.66 7.67 -9.32 7.34 -10 7 C-3.23076923 1.15384615 -3.23076923 1.15384615 0 0 Z " fill="#929594" transform="translate(358,185)"/>
<path d="M0 0 C0.66 0 1.32 0 2 0 C2.66 1.65 3.32 3.3 4 5 C2.0625 5.5625 2.0625 5.5625 0 6 C-0.33 5.67 -0.66 5.34 -1 5 C-1.66 5 -2.32 5 -3 5 C-1.125 1.125 -1.125 1.125 0 0 Z " fill="#C9CBCA" transform="translate(515,15)"/>
<path d="M0 0 C0.33 1.32 0.66 2.64 1 4 C1.66 4.33 2.32 4.66 3 5 C2.360625 5.61875 1.72125 6.2375 1.0625 6.875 C-1.03883584 8.82597612 -1.03883584 8.82597612 -2 11 C-2.66 10.67 -3.32 10.34 -4 10 C-2.68 6.7 -1.36 3.4 0 0 Z " fill="#9FA2A1" transform="translate(125,215)"/>
<path d="M0 0 C0.33 0 0.66 0 1 0 C1.33 1.98 1.66 3.96 2 6 C0.35 7.32 -1.3 8.64 -3 10 C-2.49287967 6.28111761 -1.88391785 3.26545761 0 0 Z " fill="#A3A5A5" transform="translate(333,212)"/>
<path d="M0 0 C0.66 1.32 1.32 2.64 2 4 C-2.75 8 -2.75 8 -5 8 C-3.62845496 5.04590299 -2.01136276 2.55991624 0 0 Z " fill="#AEB0AF" transform="translate(94,122)"/>
<path d="M0 0 C0.66 0.33 1.32 0.66 2 1 C0.12050295 4.57104439 -1.17053157 6.54744301 -5 8 C-3.8141763 4.62496331 -2.72426311 2.35277269 0 0 Z " fill="#AAADAC" transform="translate(24,15)"/>
<path d="M0 0 C0.66 0.33 1.32 0.66 2 1 C1 4 1 4 -2 6 C-2.99 6 -3.98 6 -5 6 C-5 5.34 -5 4.68 -5 4 C-3.37373596 2.61767557 -1.7074998 1.28062485 0 0 Z " fill="#AAACAB" transform="translate(458,344)"/>
<path d="M0 0 C0.12375 0.639375 0.2475 1.27875 0.375 1.9375 C0.684375 2.9584375 0.684375 2.9584375 1 4 C1.66 4.33 2.32 4.66 3 5 C-1.75 8 -1.75 8 -4 8 C-2.66666667 5.33333333 -1.33333333 2.66666667 0 0 Z " fill="#A4A7A5" transform="translate(421,257)"/>
<path d="M0 0 C2.31 0 4.62 0 7 0 C7 1.65 7 3.3 7 5 C4.11562221 3.70700306 2.12780579 2.34058637 0 0 Z " fill="#B0B2B1" transform="translate(26,58)"/>
<path d="M0 0 C0.33 0 0.66 0 1 0 C2.25 7.625 2.25 7.625 0 11 C-0.66 11 -1.32 11 -2 11 C-1.34 7.37 -0.68 3.74 0 0 Z " fill="#8A8D8C" transform="translate(217,245)"/>
<path d="M0 0 C2.01822917 0.06510417 4.03645833 0.13020833 6.0546875 0.1953125 C4.9921875 1.7578125 4.9921875 1.7578125 3.0546875 3.1953125 C-0.6328125 2.8828125 -0.6328125 2.8828125 -3.9453125 2.1953125 C-1.9453125 0.1953125 -1.9453125 0.1953125 0 0 Z " fill="#B6B9B8" transform="translate(166.9453125,177.8046875)"/>
<path d="M0 0 C0 2 0 2 -1.375 3.5 C-1.91125 3.995 -2.4475 4.49 -3 5 C-3.66 5.66 -4.32 6.32 -5 7 C-5.66 6.67 -6.32 6.34 -7 6 C-5.81636731 2.44910192 -3.99368042 0 0 0 Z " fill="#9DA09F" transform="translate(126,95)"/>
<path d="M0 0 C1.88391785 3.26545761 2.49287967 6.28111761 3 10 C2.34 10 1.68 10 1 10 C-0.83691257 6.21812119 -1.15837626 4.05431692 0 0 Z " fill="#999C9B" transform="translate(247,217)"/>
<path d="M0 0 C-3.00617269 3.00617269 -5.82381598 2.59585316 -10 3 C-6.84439813 -0.15560187 -4.30999015 -1.43666338 0 0 Z " fill="#7F8180" transform="translate(192,61)"/>
<path d="M0 0 C0.99 0.66 1.98 1.32 3 2 C2.34 3.32 1.68 4.64 1 6 C0.34 6 -0.32 6 -1 6 C-1.625 4.125 -1.625 4.125 -2 2 C-1.34 1.34 -0.68 0.68 0 0 Z " fill="#C4C6C5" transform="translate(556,48)"/>
</svg>
