<?xml version="1.0" standalone="no"?>
<!DOCTYPE svg PUBLIC "-//W3C//DTD SVG 20010904//EN"
 "http://www.w3.org/TR/2001/REC-SVG-20010904/DTD/svg10.dtd">
<svg version="1.0" xmlns="http://www.w3.org/2000/svg"
 width="575.000000pt" height="434.000000pt" viewBox="0 0 575.000000 434.000000"
 preserveAspectRatio="xMidYMid meet">

<g transform="translate(0.000000,434.000000) scale(0.100000,-0.100000)"
fill="#000000" stroke="none">
<path d="M331 4230 c-47 -20 -107 -78 -136 -131 -26 -46 -30 -65 -30 -129 0
-64 4 -82 27 -122 52 -87 140 -140 238 -142 l66 -1 45 -51 c25 -28 72 -84 105
-125 50 -63 267 -328 312 -381 14 -16 10 -23 -34 -75 -164 -191 -274 -383
-347 -610 l-32 -98 -170 -5 c-195 -6 -232 -18 -285 -91 -53 -73 -55 -90 -55
-404 0 -324 5 -358 61 -423 53 -63 94 -74 279 -77 121 -3 162 -7 167 -17 4 -7
19 -51 34 -98 40 -121 149 -330 223 -430 78 -104 253 -279 341 -341 222 -157
461 -256 700 -290 136 -20 1965 -20 2089 -1 361 57 719 253 959 524 144 164
263 370 317 550 l29 95 155 6 c197 7 222 14 288 83 72 76 75 96 71 449 -3 275
-4 292 -25 330 -11 22 -34 52 -50 67 -54 52 -94 61 -277 67 l-168 6 -23 75
c-68 231 -181 437 -335 614 -33 38 -60 74 -60 78 0 12 38 63 135 179 44 53
135 163 203 245 l122 150 68 0 c199 2 329 202 246 379 -48 101 -133 154 -247
155 -105 0 -192 -54 -243 -151 -22 -43 -29 -129 -15 -183 10 -40 9 -50 -6 -74
-17 -27 -136 -174 -294 -364 -45 -54 -95 -115 -111 -137 l-29 -40 -82 62
c-265 202 -542 340 -879 437 -235 67 -610 108 -878 95 -173 -8 -449 -40 -565
-65 -263 -58 -605 -192 -765 -300 -30 -20 -73 -46 -95 -58 -22 -11 -82 -54
-134 -96 -51 -42 -99 -75 -105 -73 -6 2 -26 23 -44 48 -48 63 -204 255 -291
357 -120 142 -122 146 -111 222 15 106 0 165 -62 235 -49 56 -100 78 -193 82
-44 1 -91 -2 -104 -7z m2859 -695 c231 -28 448 -81 635 -155 115 -46 339 -162
420 -220 39 -27 100 -70 137 -95 197 -137 411 -433 482 -667 52 -170 67 -277
67 -478 1 -299 -39 -552 -111 -707 -126 -272 -368 -492 -668 -608 -186 -72
-130 -68 -1126 -72 -1193 -5 -1238 -2 -1461 107 -298 144 -536 382 -641 640
-66 163 -100 542 -74 815 34 346 131 554 379 809 116 119 245 223 364 295 167
102 425 213 592 255 105 27 348 70 475 85 124 14 397 12 530 -4z"/>
<path d="M1701 2554 c-126 -34 -269 -124 -342 -216 -50 -64 -113 -191 -134
-273 -19 -75 -19 -221 0 -302 8 -34 33 -101 55 -149 34 -75 53 -100 123 -169
123 -119 237 -169 412 -181 192 -13 362 52 501 191 130 129 189 277 188 470
-1 180 -59 319 -189 450 -65 66 -97 90 -166 123 -47 23 -112 48 -145 57 -73
19 -231 19 -303 -1z m293 -327 c65 -30 128 -94 164 -167 23 -47 27 -67 27
-145 0 -78 -4 -98 -28 -146 -32 -66 -99 -132 -165 -162 -63 -29 -209 -31 -262
-3 -132 69 -200 167 -208 297 -5 91 12 151 63 221 92 126 266 170 409 105z"/>
<path d="M3773 2555 c-134 -36 -243 -103 -326 -201 -120 -139 -170 -266 -171
-429 0 -124 14 -185 70 -302 78 -163 234 -295 399 -336 181 -46 364 -24 503
60 184 112 297 283 324 490 34 267 -114 543 -355 662 -45 22 -110 47 -143 55
-76 20 -230 20 -301 1z m294 -330 c63 -32 135 -102 165 -164 19 -39 23 -62 23
-146 0 -89 -3 -106 -27 -151 -30 -57 -83 -108 -154 -150 -44 -26 -58 -29 -139
-29 -77 0 -98 4 -147 27 -127 59 -192 166 -193 318 0 69 4 94 23 131 47 97
128 163 229 189 61 15 160 4 220 -25z"/>
</g>
</svg>
